<svg width="24" height="24" viewBox="0 0 24 24" fill="none" xmlns="http://www.w3.org/2000/svg">
<path d="M2 12C2 14.6522 3.05357 17.1957 4.92893 19.0711C6.8043 20.9464 9.34784 22 12 22C14.6522 22 17.1957 20.9464 19.0711 19.0711C20.9464 17.1957 22 14.6522 22 12C22 9.34784 20.9464 6.8043 19.0711 4.92893C17.1957 3.05357 14.6522 2 12 2C9.34784 2 6.8043 3.05357 4.92893 4.92893C3.05357 6.8043 2 9.34784 2 12V12Z" fill="#212121" stroke="#212121" stroke-width="2" stroke-linecap="round" stroke-linejoin="round"/>
<path d="M10.3985 16.3508C9.62196 16.8472 8.60352 16.2895 8.60352 15.3678V7.96176C8.60352 7.04013 9.62188 6.48239 10.3985 6.97871L16.192 10.6814C16.9098 11.1402 16.9098 12.1886 16.192 12.6475L10.3985 16.3508Z" fill="white" stroke="#212121" stroke-width="1.16667" stroke-linecap="round" stroke-linejoin="round"/>
</svg>
